<?xml version="1.0" standalone="no"?>
<!DOCTYPE svg PUBLIC "-//W3C//DTD SVG 20010904//EN"
 "http://www.w3.org/TR/2001/REC-SVG-20010904/DTD/svg10.dtd">
<svg version="1.0" xmlns="http://www.w3.org/2000/svg"
 width="96.000000pt" height="96.000000pt" viewBox="0 0 96.000000 96.000000"
 preserveAspectRatio="xMidYMid meet">

<g transform="translate(0.000000,96.000000) scale(0.100000,-0.100000)"
fill="#000000" stroke="none">
<path d="M330 899 c-54 -29 -114 -79 -106 -87 5 -4 57 28 71 45 6 6 32 25 59
42 64 40 48 40 -24 0z"/>
<path d="M372 878 c-66 -14 -45 -19 26 -6 78 14 158 1 248 -41 82 -38 152
-108 195 -196 33 -67 34 -74 34 -185 0 -103 -3 -121 -27 -172 -45 -96 -145
-189 -240 -224 -24 -9 -79 -19 -123 -24 l-80 -7 73 -2 c263 -5 477 242 432
500 -44 254 -285 414 -538 357z"/>
<path d="M328 841 c-31 -10 -71 -28 -90 -39 -48 -30 -102 -88 -89 -96 6 -4 11
-3 11 3 0 9 60 51 74 51 4 0 10 -10 15 -22 7 -19 9 -16 14 19 6 38 11 43 54
60 33 12 75 18 133 18 71 0 94 -4 141 -26 66 -31 123 -84 164 -154 24 -42 30
-63 33 -137 4 -76 1 -92 -21 -141 -34 -74 -97 -141 -166 -174 -50 -25 -67 -28
-156 -28 -90 0 -105 3 -152 27 -29 16 -69 42 -90 60 -36 30 -36 29 6 -14 25
-27 69 -58 105 -75 52 -24 73 -28 146 -28 70 1 95 5 142 27 73 34 141 97 173
161 14 28 25 44 25 36 0 -36 -64 -140 -111 -183 -67 -60 -138 -86 -239 -86
-221 0 -381 163 -384 392 -1 58 -4 80 -9 65 -5 -12 -7 -65 -5 -117 5 -120 33
-186 112 -266 161 -160 412 -160 571 0 28 28 64 78 80 111 28 56 30 68 30 170
0 98 -3 116 -27 167 -31 67 -103 147 -162 182 -96 56 -222 70 -328 37z"/>
<path d="M597 630 c-22 -18 -39 -46 -47 -74 -7 -27 -20 -48 -33 -54 -22 -11
-22 -11 1 -11 22 -1 23 -4 17 -43 -11 -70 -23 -112 -41 -137 -14 -19 -23 -22
-53 -18 -33 6 -34 5 -17 -8 26 -19 32 -19 66 5 32 23 56 77 66 148 6 46 8 50
43 59 l36 10 -34 2 -34 1 7 41 c9 59 24 82 47 76 14 -4 19 0 19 14 0 25 -3 24
-43 -11z"/>
<path d="M362 593 c-27 -13 -55 -40 -102 -99 -12 -16 6 -86 26 -101 27 -20 92
-16 130 8 19 11 34 25 34 30 0 6 -13 1 -29 -10 -62 -45 -141 -32 -141 23 0 21
6 24 60 30 33 4 61 10 64 14 2 4 -22 5 -55 2 -47 -5 -59 -3 -59 9 0 24 76 88
117 99 29 8 32 10 13 11 -14 0 -40 -7 -58 -16z"/>
</g>
</svg>
